<svg width="156" height="156" viewBox="0 0 156 156" fill="none" xmlns="http://www.w3.org/2000/svg">
<path opacity="0.9" d="M156 78C156 121.078 121.078 156 78 156C34.9218 156 0 121.078 0 78C0 34.9218 34.9218 0 78 0C121.078 0 156 34.9218 156 78Z" fill="#6495ED"/>
<path opacity="0.9" d="M156 78C156 121.078 121.078 156 78 156C34.9218 156 0 121.078 0 78C0 34.9218 34.9218 0 78 0C121.078 0 156 34.9218 156 78Z" fill="#6495ED"/>
<path d="M6.12793 100L33.2666 48.1836C34.2008 46.3379 35.9212 45.1074 38.4277 44.4922C39.1569 44.3099 40.057 44.2188 41.1279 44.2188C42.1989 44.2188 43.361 44.5264 44.6143 45.1416C45.8903 45.734 46.8929 46.6797 47.6221 47.9785L76.7432 100H49.0234L46.8701 94.5996H32.1045L30.2588 100H6.12793ZM33.7793 83.7646H44.8193L39.5898 68.999L33.7793 83.7646ZM103.574 45.415V62.1973L116.733 45.415H138.916L121.279 68.418L141.65 100H116.733L105.317 80.6885L104.053 82.9102V100H81.9385V45.415H103.574Z" fill="white"/>
</svg>
