 <svg width="1000" height="1000" viewBox="0 0 500 500" fill="none" xmlns="http://www.w3.org/2000/svg">
                        <g clip-path="url(#clip0)">
                            <path d="M249.6 499.6C387.45 499.6 499.2 387.85 499.2 250C499.2 112.15 387.45 0.399994 249.6 0.399994C111.75 0.399994 0 112.15 0 250C0 387.85 111.75 499.6 249.6 499.6Z" fill="#063F66" />
                            <path d="M72.8 73.2C170.4 -24.4 328.8 -24.4 426.4 73.2C524 170.8 524 329.2 426.4 426.8" fill="#022730" />
                            <path d="M133.6 446.8C134.925 446.8 136 437.129 136 425.2C136 413.271 134.925 403.6 133.6 403.6C132.275 403.6 131.2 413.271 131.2 425.2C131.2 437.129 132.275 446.8 133.6 446.8Z" fill="#DCF9F6" />
                            <path d="M133.6 428.4C145.529 428.4 155.2 427.325 155.2 426C155.2 424.675 145.529 423.6 133.6 423.6C121.671 423.6 112 424.675 112 426C112 427.325 121.671 428.4 133.6 428.4Z" fill="#DCF9F6" />
                            <path d="M428.172 152.675C436.587 144.22 442.647 136.607 441.708 135.672C440.768 134.737 433.185 140.834 424.77 149.289C416.355 157.745 410.295 165.357 411.235 166.292C412.174 167.227 419.757 161.131 428.172 152.675Z" fill="#DCF9F6" />
                            <path d="M424.523 152.936C432.938 161.391 440.521 167.488 441.46 166.553C442.4 165.618 436.34 158.005 427.925 149.55C419.51 141.094 411.927 134.998 410.987 135.933C410.048 136.868 416.108 144.48 424.523 152.936Z" fill="#DCF9F6" />
                            <path d="M366.4 94C366.842 94 367.2 89.702 367.2 84.4C367.2 79.0981 366.842 74.8 366.4 74.8C365.958 74.8 365.6 79.0981 365.6 84.4C365.6 89.702 365.958 94 366.4 94Z" fill="#DCF9F6" />
                            <path d="M366.4 85.2C371.702 85.2 376 84.8418 376 84.4C376 83.9582 371.702 83.6 366.4 83.6C361.098 83.6 356.8 83.9582 356.8 84.4C356.8 84.8418 361.098 85.2 366.4 85.2Z" fill="#DCF9F6" />
                            <path d="M178.949 102.339C174.867 98.2978 171.306 95.2767 170.995 95.5907C170.684 95.9047 173.742 99.4349 177.824 103.476C181.906 107.516 185.467 110.537 185.778 110.223C186.089 109.909 183.031 106.379 178.949 102.339Z" fill="#DCF9F6" />
                            <path d="M179.054 103.31C183.136 99.2695 186.194 95.7392 185.883 95.4252C185.572 95.1112 182.011 98.1323 177.929 102.173C173.847 106.214 170.789 109.744 171.1 110.058C171.411 110.372 174.972 107.351 179.054 103.31Z" fill="#DCF9F6" />
                            <path d="M97.1335 364.876C93.0617 360.824 89.5083 357.794 89.1967 358.108C88.8851 358.421 91.9333 361.959 96.005 366.01C100.077 370.061 103.63 373.091 103.942 372.778C104.253 372.465 101.205 368.927 97.1335 364.876Z" fill="#DCF9F6" />
                            <path d="M97.7013 365.764C101.773 361.713 104.821 358.175 104.51 357.862C104.198 357.549 100.645 360.579 96.5728 364.63C92.5011 368.681 89.4529 372.219 89.7645 372.532C90.0761 372.845 93.6296 369.815 97.7013 365.764Z" fill="#DCF9F6" />
                            <path d="M303.977 75.4374C305.833 73.5438 307.081 71.7581 306.766 71.4488C306.45 71.1396 304.69 72.424 302.835 74.3176C300.979 76.2111 299.731 77.9969 300.046 78.3061C300.362 78.6153 302.122 77.331 303.977 75.4374Z" fill="#DCF9F6" />
                            <path d="M302.936 75.8014C304.791 77.695 306.551 78.9793 306.867 78.6701C307.182 78.3609 305.934 76.5751 304.079 74.6816C302.223 72.788 300.463 71.5036 300.148 71.8128C299.832 72.1221 301.081 73.9078 302.936 75.8014Z" fill="#DCF9F6" />
                            <path d="M216.061 447.288C217.925 445.404 219.183 443.625 218.869 443.314C218.555 443.004 216.788 444.279 214.923 446.163C213.058 448.047 211.801 449.826 212.115 450.137C212.429 450.448 214.196 449.173 216.061 447.288Z" fill="#DCF9F6" />
                            <path d="M215.235 447.775C217.1 449.659 218.866 450.935 219.18 450.624C219.494 450.313 218.237 448.534 216.372 446.65C214.507 444.766 212.74 443.49 212.426 443.801C212.112 444.112 213.37 445.891 215.235 447.775Z" fill="#DCF9F6" />
                            <path d="M249.6 410C337.966 410 409.6 338.366 409.6 250C409.6 161.634 337.966 90 249.6 90C161.234 90 89.6 161.634 89.6 250C89.6 338.366 161.234 410 249.6 410Z" fill="#DCF9F6" />
                            <path d="M249.6 410C161.6 410 89.6 338 89.6 250C89.6 162 161.6 90 249.6 90" fill="#95BFB9" />
                            <path d="M249.6 410C161.6 410 163.2 338 163.2 250C163.2 162 161.6 90 249.6 90" fill="#CAEDE7" />
                            <path d="M138.4 174.8C143.702 174.8 148 170.502 148 165.2C148 159.898 143.702 155.6 138.4 155.6C133.098 155.6 128.8 159.898 128.8 165.2C128.8 170.502 133.098 174.8 138.4 174.8Z" fill="#78A8A0" />
                            <path d="M124.8 202.8C125.684 202.8 126.4 202.084 126.4 201.2C126.4 200.316 125.684 199.6 124.8 199.6C123.916 199.6 123.2 200.316 123.2 201.2C123.2 202.084 123.916 202.8 124.8 202.8Z" fill="#78A8A0" />
                            <path d="M189.6 251.6C205.948 251.6 219.2 238.348 219.2 222C219.2 205.652 205.948 192.4 189.6 192.4C173.252 192.4 160 205.652 160 222C160 238.348 173.252 251.6 189.6 251.6Z" fill="#78A8A0" />
                            <path d="M202.4 165.2C206.818 165.2 210.4 161.618 210.4 157.2C210.4 152.782 206.818 149.2 202.4 149.2C197.982 149.2 194.4 152.782 194.4 157.2C194.4 161.618 197.982 165.2 202.4 165.2Z" fill="#78A8A0" />
                            <path d="M257.6 155.6C258.925 155.6 260 154.525 260 153.2C260 151.874 258.925 150.8 257.6 150.8C256.275 150.8 255.2 151.874 255.2 153.2C255.2 154.525 256.275 155.6 257.6 155.6Z" fill="#C3E5E0" />
                            <path d="M278.4 128.4C279.725 128.4 280.8 127.325 280.8 126C280.8 124.674 279.725 123.6 278.4 123.6C277.075 123.6 276 124.674 276 126C276 127.325 277.075 128.4 278.4 128.4Z" fill="#78A8A0" />
                            <path d="M201.6 131.6C203.809 131.6 205.6 129.809 205.6 127.6C205.6 125.391 203.809 123.6 201.6 123.6C199.391 123.6 197.6 125.391 197.6 127.6C197.6 129.809 199.391 131.6 201.6 131.6Z" fill="#78A8A0" />
                            <path d="M233.6 115.6C234.484 115.6 235.2 114.884 235.2 114C235.2 113.116 234.484 112.4 233.6 112.4C232.716 112.4 232 113.116 232 114C232 114.884 232.716 115.6 233.6 115.6Z" fill="#78A8A0" />
                            <path d="M270.4 212.4C273.935 212.4 276.8 209.535 276.8 206C276.8 202.465 273.935 199.6 270.4 199.6C266.865 199.6 264 202.465 264 206C264 209.535 266.865 212.4 270.4 212.4Z" fill="#C3E5E0" />
                            <path d="M318.4 206C320.609 206 322.4 204.209 322.4 202C322.4 199.791 320.609 198 318.4 198C316.191 198 314.4 199.791 314.4 202C314.4 204.209 316.191 206 318.4 206Z" fill="#C3E5E0" />
                            <path d="M328.8 162.8C332.335 162.8 335.2 159.935 335.2 156.4C335.2 152.865 332.335 150 328.8 150C325.265 150 322.4 152.865 322.4 156.4C322.4 159.935 325.265 162.8 328.8 162.8Z" fill="#C3E5E0" />
                            <path d="M300.8 302.8C310.52 302.8 318.4 294.92 318.4 285.2C318.4 275.48 310.52 267.6 300.8 267.6C291.08 267.6 283.2 275.48 283.2 285.2C283.2 294.92 291.08 302.8 300.8 302.8Z" fill="#C3E5E0" />
                            <path d="M156 301.2C159.093 301.2 161.6 298.693 161.6 295.6C161.6 292.507 159.093 290 156 290C152.907 290 150.4 292.507 150.4 295.6C150.4 298.693 152.907 301.2 156 301.2Z" fill="#78A8A0" />
                            <path d="M213.6 274C214.925 274 216 272.925 216 271.6C216 270.275 214.925 269.2 213.6 269.2C212.275 269.2 211.2 270.275 211.2 271.6C211.2 272.925 212.275 274 213.6 274Z" fill="#78A8A0" />
                            <path d="M241.6 341.2C246.902 341.2 251.2 336.902 251.2 331.6C251.2 326.298 246.902 322 241.6 322C236.298 322 232 326.298 232 331.6C232 336.902 236.298 341.2 241.6 341.2Z" fill="#78A8A0" />
                            <path d="M124.8 261.2C128.335 261.2 131.2 258.335 131.2 254.8C131.2 251.265 128.335 248.4 124.8 248.4C121.265 248.4 118.4 251.265 118.4 254.8C118.4 258.335 121.265 261.2 124.8 261.2Z" fill="#78A8A0" />
                            <path d="M267.2 252.4C268.084 252.4 268.8 251.684 268.8 250.8C268.8 249.916 268.084 249.2 267.2 249.2C266.316 249.2 265.6 249.916 265.6 250.8C265.6 251.684 266.316 252.4 267.2 252.4Z" fill="#C3E5E0" />
                            <path d="M344 258C346.209 258 348 256.209 348 254C348 251.791 346.209 250 344 250C341.791 250 340 251.791 340 254C340 256.209 341.791 258 344 258Z" fill="#95BFB9" />
                            <path d="M174.4 349.2C179.702 349.2 184 344.902 184 339.6C184 334.298 179.702 330 174.4 330C169.098 330 164.8 334.298 164.8 339.6C164.8 344.902 169.098 349.2 174.4 349.2Z" fill="#78A8A0" />
                            <path d="M193.6 308.4C195.367 308.4 196.8 306.967 196.8 305.2C196.8 303.433 195.367 302 193.6 302C191.833 302 190.4 303.433 190.4 305.2C190.4 306.967 191.833 308.4 193.6 308.4Z" fill="#78A8A0" />
                            <path d="M292.8 346C294.567 346 296 344.567 296 342.8C296 341.033 294.567 339.6 292.8 339.6C291.033 339.6 289.6 341.033 289.6 342.8C289.6 344.567 291.033 346 292.8 346Z" fill="#C3E5E0" />
                            <path d="M241.6 371.6C242.925 371.6 244 370.525 244 369.2C244 367.875 242.925 366.8 241.6 366.8C240.275 366.8 239.2 367.875 239.2 369.2C239.2 370.525 240.275 371.6 241.6 371.6Z" fill="#78A8A0" />
                            <path d="M201.6 366.8C202.484 366.8 203.2 366.084 203.2 365.2C203.2 364.316 202.484 363.6 201.6 363.6C200.716 363.6 200 364.316 200 365.2C200 366.084 200.716 366.8 201.6 366.8Z" fill="#78A8A0" />
                            <path d="M332.8 334.8C336.335 334.8 339.2 331.935 339.2 328.4C339.2 324.865 336.335 322 332.8 322C329.265 322 326.4 324.865 326.4 328.4C326.4 331.935 329.265 334.8 332.8 334.8Z" fill="#95BFB9" />
                            <path d="M284 379.6C286.209 379.6 288 377.809 288 375.6C288 373.391 286.209 371.6 284 371.6C281.791 371.6 280 373.391 280 375.6C280 377.809 281.791 379.6 284 379.6Z" fill="#C3E5E0" />
                            <path d="M245.6 292.4C247.367 292.4 248.8 290.967 248.8 289.2C248.8 287.433 247.367 286 245.6 286C243.833 286 242.4 287.433 242.4 289.2C242.4 290.967 243.833 292.4 245.6 292.4Z" fill="#78A8A0" />
                            <path d="M353.6 306.8C357.135 306.8 360 303.935 360 300.4C360 296.865 357.135 294 353.6 294C350.065 294 347.2 296.865 347.2 300.4C347.2 303.935 350.065 306.8 353.6 306.8Z" fill="#95BFB9" />
                            <path d="M134.4 329.2C137.493 329.2 140 326.693 140 323.6C140 320.507 137.493 318 134.4 318C131.307 318 128.8 320.507 128.8 323.6C128.8 326.693 131.307 329.2 134.4 329.2Z" fill="#78A8A0" />
                            <path d="M309.6 248.4C313.576 248.4 316.8 245.176 316.8 241.2C316.8 237.224 313.576 234 309.6 234C305.624 234 302.4 237.224 302.4 241.2C302.4 245.176 305.624 248.4 309.6 248.4Z" fill="#C3E5E0" />
                        </g>
                        <defs>
                            <clipPath id="clip0">
                                <rect width="499.6" height="499.6" fill="white" />
                            </clipPath>
                        </defs>
                    </svg>